<?xml version="1.0" encoding="utf-8"?>
<!-- Generator: Adobe Illustrator 25.2.1, SVG Export Plug-In . SVG Version: 6.00 Build 0)  -->
<svg version="1.1" id="Layer_1" xmlns="http://www.w3.org/2000/svg" xmlns:xlink="http://www.w3.org/1999/xlink" x="0px" y="0px"
	 viewBox="0 0 1024 1024" style="enable-background:new 0 0 1024 1024;" xml:space="preserve">
<style type="text/css">
	.st0{fill:#694199;}
	.st1{fill:#FFFFFF;}
</style>
<g>
	<rect class="st0" width="1024" height="1024"/>
	<g>
		<path class="st1" d="M510.49,277.96c17.21-22.33,36.51-42.36,59.43-58.72c38.99-27.84,82.6-36.86,129.76-32.47
			c90.85,8.45,159.44,78.84,176.19,165.97c12.46,64.84-0.71,125.29-29.64,183.34c-20.46,41.07-49.68,75.55-81.76,107.68
			c-45.39,45.48-94.83,86.43-144.68,126.87c-21.39,17.35-43.17,34.24-64.89,51.19c-9.65,7.53-20.24,13.33-32.48,15.58
			c-16.86,3.09-31.85-2.1-45.16-11.66c-17.66-12.7-34.84-26.1-51.84-39.69c-55.39-44.3-110.16-89.37-160.96-138.97
			c-36.16-35.3-68.41-73.68-90.93-119.41c-20.14-40.92-31.19-84.17-29.98-129.78c1.92-72.25,29.56-132.24,88.53-175.97
			c27.03-20.04,57.8-30.99,91.17-34.8c68.5-7.82,123.45,17.73,168.18,68.32C497.91,262.77,504.09,270.38,510.49,277.96z
			 M801.7,395.06c0.08-16.59-5.27-38.92-16.67-60.43c-36.96-69.71-124.75-87.78-184.57-37.79c-22.38,18.7-37.03,42.97-48.68,69.35
			c-3.16,7.15-6.62,14.51-11.48,20.51c-15.17,18.71-41.92,18.63-57.2-0.03c-4.3-5.25-7.43-11.67-10.19-17.95
			c-8.66-19.66-19.16-38.14-32.79-54.82c-39.83-48.73-99.85-57.31-148.66-31.19c-43.96,23.53-64.85,62.84-67.87,111.65
			c-2.94,47.54,12.93,89.71,39.98,128.07c24.82,35.21,55.27,65.37,87.81,93.18c50.23,42.92,101.52,84.59,152.4,126.74
			c8.97,7.43,11.54,7.52,20.48,0.05c49.07-41.01,98.48-81.64,146.95-123.36c34.81-29.96,67.21-62.48,92.63-101.15
			C786.55,483.34,801.79,446.21,801.7,395.06z"/>
	</g>
</g>
</svg>
