<?xml version="1.0" encoding="utf-8"?>
<!-- Text-only loversnmore wordmark (Secondary Branding) -->
<svg version="1.1" id="Layer_1" xmlns="http://www.w3.org/2000/svg" xmlns:xlink="http://www.w3.org/1999/xlink" x="0px" y="0px"
	 viewBox="0 0 643.08 127.33" style="enable-background:new 0 0 643.08 127.33;" xml:space="preserve">
<style type="text/css">
	.st0{fill:#6A36A8;}
</style>
<g>
	<path class="st0" d="M3.64,103.08V18.19h11.88v84.89H3.64z"/>
	<path class="st0" d="M69.18,45.66c4.81,2.79,8.61,6.59,11.4,11.4c2.79,4.81,4.18,10.05,4.18,15.7c0,5.66-1.39,10.9-4.18,15.7
		c-2.79,4.81-6.59,8.61-11.4,11.4c-4.81,2.79-10.05,4.18-15.7,4.18c-5.66,0-10.9-1.39-15.7-4.18c-4.81-2.79-8.61-6.59-11.4-11.4
		c-2.79-4.81-4.18-10.04-4.18-15.7c0-5.66,1.39-10.89,4.18-15.7c2.79-4.81,6.59-8.61,11.4-11.4c4.81-2.79,10.04-4.18,15.7-4.18
		C59.14,41.47,64.37,42.87,69.18,45.66z M43.66,55.6c-2.99,1.74-5.34,4.12-7.03,7.15s-2.55,6.37-2.55,10c0,3.64,0.87,6.97,2.61,10
		c1.74,3.03,4.08,5.42,7.03,7.15c2.95,1.74,6.25,2.61,9.88,2.61c3.64,0,6.91-0.87,9.82-2.61c2.91-1.74,5.21-4.12,6.91-7.15
		s2.55-6.37,2.55-10c0-3.64-0.83-6.97-2.49-10c-1.66-3.03-3.96-5.42-6.91-7.15c-2.95-1.74-6.25-2.61-9.88-2.61
		C49.96,52.99,46.65,53.86,43.66,55.6z"/>
	<path class="st0" d="M84.16,42.44h12.49l17.83,45.23l17.95-45.23h12.49l-24.5,60.63h-11.88L84.16,42.44z"/>
	<path class="st0" d="M149.1,57.18c2.71-4.81,6.43-8.63,11.16-11.46c4.73-2.83,9.92-4.24,15.58-4.24c5.25,0,10.25,1.23,14.98,3.7
		c4.73,2.47,8.59,5.98,11.58,10.55c2.99,4.57,4.57,9.88,4.73,15.95c0,2.02-0.12,3.84-0.36,5.46h-48.99c0.49,4.53,2.4,8.23,5.76,11.1
		c3.35,2.87,7.46,4.31,12.31,4.31c5.98,0,10.83-2.02,14.55-6.06l14.19,0.12c-2.67,5.26-6.55,9.48-11.64,12.67
		c-5.09,3.19-10.67,4.79-16.73,4.79c-5.74,0-11-1.39-15.77-4.18c-4.77-2.79-8.53-6.57-11.28-11.34c-2.75-4.77-4.12-9.98-4.12-15.64
		C145.04,67.22,146.39,61.99,149.1,57.18z M194.39,67.42c-1.13-4.2-3.38-7.66-6.73-10.37c-3.36-2.71-7.18-4.06-11.46-4.06
		c-4.61,0-8.55,1.33-11.82,4s-5.48,6.15-6.61,10.43H194.39z"/>
	<path class="st0" d="M218.65,71.43c0-9.7,2.32-17,6.97-21.89c4.65-4.89,10.81-7.34,18.49-7.34h1.21v11.52h-1.21
		c-4.37,0-7.72,1.46-10.07,4.37c-2.35,2.91-3.52,7.36-3.52,13.34v31.65h-11.88V71.43z"/>
	<path class="st0" d="M265.76,101.8c-3.6-1.5-6.49-3.7-8.67-6.61c-2.18-2.91-3.27-6.35-3.27-10.31h11.4c0,2.59,1.19,4.65,3.58,6.19
		c2.38,1.54,5.4,2.3,9.03,2.3c3.72,0,6.59-0.73,8.61-2.18c2.02-1.46,3.03-3.4,3.03-5.82c0-2.67-1.13-4.57-3.4-5.7
		c-2.26-1.13-5.78-2.22-10.55-3.27c-4.37-0.97-7.92-1.96-10.67-2.97c-2.75-1.01-5.11-2.71-7.09-5.09c-1.98-2.38-2.97-5.64-2.97-9.76
		c0-3.31,0.99-6.26,2.97-8.85c1.98-2.59,4.69-4.61,8.12-6.06c3.44-1.46,7.22-2.18,11.34-2.18c6.47,0,11.78,1.62,15.95,4.85
		c4.16,3.23,6.25,7.68,6.25,13.34h-11.4c0-2.26-1.07-4.1-3.21-5.52c-2.14-1.41-4.75-2.12-7.82-2.12c-2.99,0-5.46,0.69-7.4,2.06
		c-1.94,1.38-2.91,3.15-2.91,5.34c0,2.26,1.05,3.9,3.15,4.91c2.1,1.01,5.42,2.04,9.94,3.09c4.44,0.97,8.12,1.98,11.04,3.03
		c2.91,1.05,5.4,2.81,7.46,5.27c2.06,2.47,3.09,5.84,3.09,10.13c0,5.9-2.2,10.41-6.61,13.52c-4.41,3.11-10.13,4.67-17.16,4.67
		C273.3,104.05,269.36,103.3,265.76,101.8z"/>
	<path class="st0" d="M368.05,103.08h-11.88V71.18c0-6.06-1.27-10.61-3.82-13.64c-2.55-3.03-6.21-4.55-10.98-4.55
		c-4.77,0-8.43,1.52-10.97,4.55c-2.55,3.03-3.82,7.58-3.82,13.64v31.89h-11.88V71.18c0-9.86,2.43-17.28,7.28-22.25
		c4.85-4.97,11.32-7.46,19.4-7.46c8.08,0,14.55,2.49,19.4,7.46c4.85,4.97,7.28,12.39,7.28,22.25V103.08z"/>
	<path class="st0" d="M465.12,48.99c4.81,5.01,7.21,12.41,7.21,22.19v31.89h-11.88V71.18c0-6.06-1.23-10.61-3.7-13.64
		c-2.47-3.03-6.04-4.55-10.73-4.55c-4.61,0-8.17,1.52-10.67,4.55c-2.51,3.03-3.76,7.58-3.76,13.64v31.89h-11.88V71.18
		c0-6.06-1.23-10.61-3.7-13.64c-2.47-3.03-6.04-4.55-10.73-4.55c-4.61,0-8.17,1.52-10.67,4.55c-2.51,3.03-3.76,7.58-3.76,13.64
		v31.89h-11.88V71.18c0-9.78,2.4-17.18,7.22-22.19c4.81-5.01,11.18-7.52,19.1-7.52c4.53,0,8.57,0.95,12.13,2.85
		c3.56,1.9,6.3,4.71,8.25,8.43c1.94-3.72,4.69-6.53,8.25-8.43c3.56-1.9,7.6-2.85,12.13-2.85C453.94,41.47,460.31,43.98,465.12,48.99
		z"/>
	<path class="st0" d="M526,45.66c4.81,2.79,8.61,6.59,11.4,11.4c2.79,4.81,4.18,10.05,4.18,15.7c0,5.66-1.39,10.9-4.18,15.7
		c-2.79,4.81-6.59,8.61-11.4,11.4c-4.81,2.79-10.05,4.18-15.7,4.18c-5.66,0-10.9-1.39-15.71-4.18c-4.81-2.79-8.61-6.59-11.4-11.4
		c-2.79-4.81-4.18-10.04-4.18-15.7c0-5.66,1.4-10.89,4.18-15.7c2.79-4.81,6.59-8.61,11.4-11.4c4.81-2.79,10.04-4.18,15.71-4.18
		C515.95,41.47,521.19,42.87,526,45.66z M500.47,55.6c-2.99,1.74-5.34,4.12-7.03,7.15c-1.7,3.03-2.55,6.37-2.55,10
		c0,3.64,0.87,6.97,2.61,10c1.74,3.03,4.08,5.42,7.03,7.15c2.95,1.74,6.25,2.61,9.88,2.61c3.64,0,6.91-0.87,9.82-2.61
		c2.91-1.74,5.21-4.12,6.91-7.15c1.7-3.03,2.55-6.37,2.55-10c0-3.64-0.83-6.97-2.49-10c-1.66-3.03-3.96-5.42-6.91-7.15
		c-2.95-1.74-6.25-2.61-9.88-2.61C506.78,52.99,503.46,53.86,500.47,55.6z"/>
	<path class="st0" d="M548.25,71.43c0-9.7,2.32-17,6.97-21.89c4.65-4.89,10.81-7.34,18.49-7.34h1.21v11.52h-1.21
		c-4.37,0-7.72,1.46-10.07,4.37c-2.35,2.91-3.52,7.36-3.52,13.34v31.65h-11.88V71.43z"/>
	<path class="st0" d="M582.02,57.18c2.71-4.81,6.43-8.63,11.16-11.46c4.73-2.83,9.92-4.24,15.58-4.24c5.25,0,10.25,1.23,14.98,3.7
		c4.73,2.47,8.59,5.98,11.58,10.55c2.99,4.57,4.57,9.88,4.73,15.95c0,2.02-0.12,3.84-0.36,5.46h-48.99c0.49,4.53,2.4,8.23,5.76,11.1
		c3.35,2.87,7.46,4.31,12.31,4.31c5.98,0,10.83-2.02,14.55-6.06l14.19,0.12c-2.67,5.26-6.55,9.48-11.64,12.67
		c-5.09,3.19-10.67,4.79-16.74,4.79c-5.74,0-11-1.39-15.76-4.18c-4.77-2.79-8.53-6.57-11.28-11.34c-2.75-4.77-4.12-9.98-4.12-15.64
		C577.96,67.22,579.31,61.99,582.02,57.18z M627.32,67.42c-1.13-4.2-3.38-7.66-6.73-10.37c-3.36-2.71-7.18-4.06-11.46-4.06
		c-4.61,0-8.55,1.33-11.82,4s-5.48,6.15-6.61,10.43H627.32z"/>
</g>
</svg>
